<?xml version="1.0" encoding="UTF-8"?>
<svg version="1.1" xmlns="http://www.w3.org/2000/svg" width="32" height="32">
<path d="M0 0 C10.56 0 21.12 0 32 0 C32 10.56 32 21.12 32 32 C21.44 32 10.88 32 0 32 C0 21.44 0 10.88 0 0 Z " fill="#01091D" transform="translate(0,0)"/>
<path d="M0 0 C0.845625 0.33 1.69125 0.66 2.5625 1 C2.3975 1.53625 2.2325 2.0725 2.0625 2.625 C1.41828004 5.07954458 1.41828004 5.07954458 1.875 7.9375 C1.5625 11 1.5625 11 -1 13.9375 C-3.85317254 16.07567704 -4.46441309 15.99869775 -8.3125 15.8125 C-9.34375 15.544375 -10.375 15.27625 -11.4375 15 C-11.4375 14.67 -11.4375 14.34 -11.4375 14 C-8.7975 13.67 -6.1575 13.34 -3.4375 13 C-6.78079469 11.80648688 -6.78079469 11.80648688 -10.4375 11 C-11.4275 11.66 -12.4175 12.32 -13.4375 13 C-15.625 12.625 -15.625 12.625 -17.4375 12 C-17.4375 11.67 -17.4375 11.34 -17.4375 11 C-15.7875 11 -14.1375 11 -12.4375 11 C-12.19 10.443125 -11.9425 9.88625 -11.6875 9.3125 C-10.22143985 6.60028873 -8.40760529 4.36412635 -6.4375 2 C-5.7775 2.33 -5.1175 2.66 -4.4375 3 C-4.7675 4.32 -5.0975 5.64 -5.4375 7 C-4.1175 5.68 -2.7975 4.36 -1.4375 3 C-4.63811489 1.39969256 -7.97538036 1.35683943 -11.4375 2 C-13.9779226 4.33830958 -13.9779226 4.33830958 -15.4375 7 C-15.12056247 4.06832781 -14.80524166 2.41017339 -12.8125 0.1875 C-8.4536896 -1.9919052 -4.55875906 -1.32618445 0 0 Z " fill="#1372B0" transform="translate(23.4375,8)"/>
<path d="M0 0 C0.66 0.33 1.32 0.66 2 1 C1.67 2.32 1.34 3.64 1 5 C2.65 4.67 4.3 4.34 6 4 C6.042721 5.66611905 6.04063832 7.33382885 6 9 C5 10 5 10 1.625 10.0625 C0.42875 10.041875 -0.7675 10.02125 -2 10 C-4.83967231 10 -7.23735711 10.40267181 -10 11 C-10.33 10.34 -10.66 9.68 -11 9 C-9.35 9 -7.7 9 -6 9 C-5.7525 8.443125 -5.505 7.88625 -5.25 7.3125 C-3.78393985 4.60028873 -1.97010529 2.36412635 0 0 Z " fill="#033875" transform="translate(17,10)"/>
<path d="M0 0 C3.82825694 0.0274427 3.82825694 0.0274427 6.125 1.75 C6.455 2.245 6.785 2.74 7.125 3.25 C5.75 4.75 5.75 4.75 4.125 6.25 C3.465 6.25 2.805 6.25 2.125 6.25 C1.795 4.93 1.465 3.61 1.125 2.25 C-0.92770463 4.09188612 -0.92770463 4.09188612 -1.875 6.25 C-2.875 8.25 -2.875 8.25 -4.875 10.25 C-7.5 10.375 -7.5 10.375 -9.875 10.25 C-9.06457164 8.76969728 -8.25159652 7.29078858 -7.4375 5.8125 C-6.75880859 4.57693359 -6.75880859 4.57693359 -6.06640625 3.31640625 C-4.31479986 0.27837418 -4.31479986 0.27837418 0 0 Z " fill="#02112B" transform="translate(15.875,8.75)"/>
<path d="M0 0 C0.66 0.33 1.32 0.66 2 1 C1.67 2.32 1.34 3.64 1 5 C1.66 5.33 2.32 5.66 3 6 C3.33 6.99 3.66 7.98 4 9 C1.03 8.505 1.03 8.505 -2 8 C-2.125 5.125 -2.125 5.125 -2 2 C-1.34 1.34 -0.68 0.68 0 0 Z " fill="#1D99CF" transform="translate(17,10)"/>
<path d="M0 0 C5.53846154 -0.36923077 5.53846154 -0.36923077 7.875 1.5 C8.24625 1.995 8.6175 2.49 9 3 C7.625 4.5 7.625 4.5 6 6 C5.34 6 4.68 6 4 6 C3.896875 5.360625 3.79375 4.72125 3.6875 4.0625 C3.460625 3.381875 3.23375 2.70125 3 2 C2.01 1.67 1.02 1.34 0 1 C0 0.67 0 0.34 0 0 Z " fill="#010817" transform="translate(14,9)"/>
<path d="M0 0 C0.33 0.66 0.66 1.32 1 2 C0.0625 4.125 0.0625 4.125 -1 6 C-2.65 6 -4.3 6 -6 6 C-4 4 -2 2 0 0 Z " fill="#052B57" transform="translate(12,13)"/>
</svg>
